<svg xmlns="http://www.w3.org/2000/svg" width="1200" height="1200" viewBox="0 0 1200 1200">
  <defs>
    <linearGradient id="bg" x1="0" y1="0" x2="1" y2="1">
      <stop offset="0" stop-color="#0B1523"/>
      <stop offset="1" stop-color="#050A12"/>
    </linearGradient>
    <radialGradient id="focus" cx="78%" cy="46%" r="52%">
      <stop offset="0" stop-color="#1F7A53" stop-opacity=".20"/>
      <stop offset="1" stop-color="#1F7A53" stop-opacity="0"/>
    </radialGradient>
    <filter id="shadow" x="-20%" y="-20%" width="140%" height="160%">
      <feGaussianBlur in="SourceAlpha" stdDeviation="18"/>
      <feOffset dy="14"/>
      <feColorMatrix values="0 0 0 0 0 0 0 0 0 0 0 0 0 0 0 0 0 0 .45 0"/>
      <feMerge><feMergeNode/><feMergeNode in="SourceGraphic"/></feMerge>
    </filter>
  </defs>
  <rect width="1200" height="675" fill="url(#bg)"/>
  <rect width="1200" height="675" fill="url(#focus)"/>

  <g font-family="-apple-system, BlinkMacSystemFont, 'SF Pro Display', Arial, sans-serif">
    <g transform="translate(72 62)">
      <rect width="122" height="31" rx="15.5" fill="#152232" stroke="#2A394B"/>
      <circle cx="18" cy="15.5" r="4" fill="#55D68B"/>
      <text x="31" y="21" fill="#C9D2DE" font-size="12" font-weight="700" letter-spacing="1.4">DIRGO 0.6</text>
    </g>

    <text x="72" y="196" fill="#F5F7FA" font-size="63" font-weight="650" letter-spacing="-2.6">
      <tspan x="72" dy="0">Your project already</tspan>
      <tspan x="72" dy="72">knows the command.</tspan>
    </text>
    <text x="76" y="334" fill="#9CA9B8" font-size="22" font-weight="450" letter-spacing="-.25">
      Dirgo finds it before you finish typing.
    </text>

    <g transform="translate(72 512)" font-size="11" font-weight="700" letter-spacing="1.35">
      <rect width="86" height="31" rx="8" fill="#101C2A" stroke="#28384A"/>
      <text x="18" y="20.5" fill="#AAB6C5">LOCAL</text>
      <rect x="98" width="154" height="31" rx="8" fill="#101C2A" stroke="#28384A"/>
      <text x="116" y="20.5" fill="#AAB6C5">PROJECT-AWARE</text>
      <rect x="264" width="154" height="31" rx="8" fill="#10231C" stroke="#28553E"/>
      <text x="282" y="20.5" fill="#79DCA5">NEVER EXECUTES</text>
    </g>

    <g transform="translate(715 145)" filter="url(#shadow)">
      <rect width="413" height="326" rx="18" fill="#0D141E" stroke="#2C3948"/>
      <rect x="1" y="1" width="411" height="46" rx="17" fill="#111C29"/>
      <rect x="1" y="31" width="411" height="16" fill="#111C29"/>
      <circle cx="24" cy="23" r="4" fill="#374758"/>
      <circle cx="40" cy="23" r="4" fill="#374758"/>
      <circle cx="56" cy="23" r="4" fill="#55D68B"/>
      <text x="86" y="28" fill="#7F8D9E" font-size="12" font-weight="600">project / terminal</text>

      <g font-family="'SF Mono', ui-monospace, Menlo, monospace">
        <text x="28" y="92" fill="#718093" font-size="13">TYPE</text>
        <text x="28" y="126" fill="#EEF3F7" font-size="23" font-weight="600">git co</text>
        <rect x="108" y="105" width="2" height="25" fill="#55D68B"/>

        <path d="M28 159H385" stroke="#243140"/>
        <text x="28" y="192" fill="#718093" font-size="13">DIRGO SUGGESTS</text>
        <rect x="20" y="211" width="373" height="58" rx="10" fill="#13271F" stroke="#2C6848"/>
        <text x="39" y="247" fill="#79DCA5" font-size="16" font-weight="700">commit</text>
        <text x="339" y="247" fill="#708A7A" font-size="11" font-weight="700">GIT</text>
        <text x="28" y="301" fill="#8492A3" font-size="12">Tab inserts. Nothing runs.</text>
      </g>
    </g>
  </g>
</svg>
